<?xml version="1.0" encoding="UTF-8"?>
<svg xmlns="http://www.w3.org/2000/svg" xmlns:xlink="http://www.w3.org/1999/xlink" width="32pt" height="32pt" viewBox="0 0 32 32" version="1.1">
<g id="surface1">
<path style=" stroke:none;fill-rule:nonzero;fill:rgb(26.666667%,26.666667%,26.666667%);fill-opacity:1;" d="M 25.152344 25.59375 C 28.242188 23.445312 28.925781 19.96875 29.167969 19.039062 C 29.332031 18.417969 29.777344 17.886719 30.511719 17.449219 L 32 16.664062 C 32 16.664062 31.101562 16.027344 29.308594 14.757812 C 28.8125 14.492188 28.640625 14.105469 28.792969 13.597656 C 28.964844 13.039062 28.914062 12.164062 28.640625 10.980469 C 28.371094 9.792969 27.550781 8.726562 26.183594 7.773438 C 26.183594 7.773438 26.597656 9.589844 26.277344 11.269531 C 26.066406 12.390625 25.34375 12.738281 24.105469 12.308594 L 19.347656 10.367188 C 18.886719 9.550781 18.527344 8.921875 18.277344 8.484375 C 18.023438 8.046875 18.023438 7.691406 18.277344 7.414062 L 19.21875 6.289062 L 21.253906 6.066406 C 22.089844 6.066406 22.566406 5.714844 22.675781 5.011719 C 20.132812 5.289062 17.914062 4.421875 16.019531 2.40625 L 15.980469 2.40625 C 14.085938 4.421875 11.867188 5.289062 9.324219 5.011719 C 9.433594 5.714844 9.910156 6.066406 10.746094 6.066406 L 12.78125 6.289062 L 13.722656 7.414062 C 13.976562 7.691406 13.976562 8.046875 13.722656 8.484375 C 13.472656 8.921875 13.113281 9.550781 12.652344 10.367188 L 7.894531 12.308594 C 6.65625 12.738281 5.933594 12.390625 5.722656 11.269531 C 5.402344 9.589844 5.816406 7.773438 5.816406 7.773438 C 4.449219 8.726562 3.628906 9.792969 3.359375 10.980469 C 3.085938 12.164062 3.035156 13.039062 3.207031 13.597656 C 3.359375 14.105469 3.1875 14.492188 2.691406 14.757812 C 0.898438 16.027344 0 16.664062 0 16.664062 L 1.488281 17.449219 C 2.222656 17.886719 2.667969 18.417969 2.832031 19.039062 C 3.074219 19.96875 3.757812 23.445312 6.847656 25.59375 C 5.917969 22.984375 6.234375 20.75 7.800781 18.886719 C 8.015625 19.511719 8.335938 19.960938 8.761719 20.230469 C 9.238281 18.6875 10.207031 17.769531 11.667969 17.472656 L 12.574219 18.511719 L 12.027344 21.804688 L 13.890625 24.289062 C 13.417969 22.566406 13.515625 21.144531 14.1875 20.027344 C 14.648438 20.402344 15.253906 20.585938 16 20.578125 C 16.746094 20.585938 17.351562 20.402344 17.8125 20.027344 C 18.484375 21.144531 18.582031 22.566406 18.109375 24.289062 L 19.972656 21.804688 L 19.425781 18.511719 L 20.332031 17.472656 C 21.792969 17.769531 22.761719 18.6875 23.238281 20.230469 C 23.664062 19.960938 23.984375 19.511719 24.199219 18.886719 C 25.765625 20.75 26.082031 22.984375 25.152344 25.59375 Z M 14.023438 16.679688 C 13.398438 16.648438 13.363281 15.496094 13.640625 14.726562 C 13.921875 13.957031 14.25 13.078125 15.335938 11.429688 C 15.316406 11.558594 14.375 14.183594 15.007812 15.496094 C 14.769531 16.304688 14.441406 16.699219 14.023438 16.679688 Z M 17.976562 16.679688 C 17.558594 16.699219 17.230469 16.304688 16.992188 15.496094 C 17.625 14.183594 16.683594 11.558594 16.664062 11.429688 C 17.75 13.078125 18.078125 13.957031 18.359375 14.726562 C 18.636719 15.496094 18.601562 16.648438 17.976562 16.679688 Z M 17.976562 16.679688 "/>
</g>
</svg>
