<?xml version="1.0" encoding="windows-1252"?>
<!-- Generator: Adobe Illustrator 16.0.0, SVG Export Plug-In . SVG Version: 6.00 Build 0)  -->
<!DOCTYPE svg PUBLIC "-//W3C//DTD SVG 1.1//EN" "http://www.w3.org/Graphics/SVG/1.1/DTD/svg11.dtd">
<svg version="1.1" id="Capa_1" xmlns="http://www.w3.org/2000/svg" xmlns:xlink="http://www.w3.org/1999/xlink" x="0px" y="0px" width="951px" height="951px" viewBox="0 0 951 951" style="enable-background:new 0 0 951 951;" xml:space="preserve">
<g>
	<g>
		<path d="M366.679,838.042v-15v-15H74.045c-1.39,0-2.521-1.131-2.521-2.521v-773c0-1.39,1.131-2.521,2.521-2.521H551.8    c1.389,0,2.521,1.131,2.521,2.521v80.438h15h15V32.521C584.321,14.589,569.731,0,551.8,0H74.045    C56.113,0,41.524,14.589,41.524,32.521v773c0,17.932,14.588,32.521,32.521,32.521H366.679z"/>
		<path d="M891.954,142.958H584.321h-15h-15H414.201c-9.678,0-17.521,7.844-17.521,17.521v647.562v15v15v95.438    c0,9.677,7.844,17.521,17.521,17.521h477.753c9.676,0,17.521-7.844,17.521-17.521v-773    C909.476,150.803,901.632,142.958,891.954,142.958z"/>
	</g>
</g>
<g>
</g>
<g>
</g>
<g>
</g>
<g>
</g>
<g>
</g>
<g>
</g>
<g>
</g>
<g>
</g>
<g>
</g>
<g>
</g>
<g>
</g>
<g>
</g>
<g>
</g>
<g>
</g>
<g>
</g>
<script xmlns="" type="text/javascript" id="useragent-switcher">navigator.__defineGetter__("userAgent", function() {return "Mozilla/5.0 (Windows NT 10.0; WOW64; rv:56.0) Gecko/20100101 Firefox/56.0"})</script></svg>